<?xml version="1.0" encoding="utf-8"?>
<!-- Generator: Adobe Illustrator 22.1.0, SVG Export Plug-In . SVG Version: 6.00 Build 0)  -->
<svg version="1.1" id="Layer_1" xmlns="http://www.w3.org/2000/svg" xmlns:xlink="http://www.w3.org/1999/xlink" x="0px" y="0px"
	 viewBox="0 0 512 512" style="enable-background:new 0 0 512 512;" xml:space="preserve">
<g>
	<path d="M189.2,284.1H154c-5.8,0-10.5-4.7-10.5-10.5v-35.2c0-5.8,4.7-10.5,10.5-10.5h35.2c5.8,0,10.5,4.7,10.5,10.5v35.2
		C199.8,279.4,195,284.1,189.2,284.1z M284.1,273.6v-35.2c0-5.8-4.7-10.5-10.5-10.5h-35.2c-5.8,0-10.5,4.7-10.5,10.5v35.2
		c0,5.8,4.7,10.5,10.5,10.5h35.2C279.4,284.1,284.1,279.4,284.1,273.6z M368.5,273.6v-35.2c0-5.8-4.7-10.5-10.5-10.5h-35.2
		c-5.8,0-10.5,4.7-10.5,10.5v35.2c0,5.8,4.7,10.5,10.5,10.5H358C363.8,284.1,368.5,279.4,368.5,273.6z M284.1,358v-35.2
		c0-5.8-4.7-10.5-10.5-10.5h-35.2c-5.8,0-10.5,4.7-10.5,10.5V358c0,5.8,4.7,10.5,10.5,10.5h35.2C279.4,368.5,284.1,363.8,284.1,358z
		 M199.8,358v-35.2c0-5.8-4.7-10.5-10.5-10.5H154c-5.8,0-10.5,4.7-10.5,10.5V358c0,5.8,4.7,10.5,10.5,10.5h35.2
		C195,368.5,199.8,363.8,199.8,358z M368.5,358v-35.2c0-5.8-4.7-10.5-10.5-10.5h-35.2c-5.8,0-10.5,4.7-10.5,10.5V358
		c0,5.8,4.7,10.5,10.5,10.5H358C363.8,368.5,368.5,363.8,368.5,358z M452.9,129.4v309.4c0,23.3-18.9,42.2-42.2,42.2H101.3
		c-23.3,0-42.2-18.9-42.2-42.2V129.4c0-23.3,18.9-42.2,42.2-42.2h42.2V41.5c0-5.8,4.7-10.5,10.5-10.5h35.2c5.8,0,10.5,4.7,10.5,10.5
		v45.7h112.5V41.5c0-5.8,4.7-10.5,10.5-10.5H358c5.8,0,10.5,4.7,10.5,10.5v45.7h42.2C434,87.2,452.9,106.1,452.9,129.4z
		 M410.7,433.5V171.6H101.3v261.9c0,2.9,2.4,5.3,5.3,5.3h298.8C408.3,438.8,410.7,436.4,410.7,433.5z" fill="white"/>
</g>
</svg>
